<svg width="400" height="300" viewBox="0 0 400 300" fill="none" xmlns="http://www.w3.org/2000/svg">
  <!-- Background -->
  <rect width="400" height="300" fill="#f0f9ff"/>
  
  <!-- Medical Website Browser -->
  <rect x="30" y="40" width="340" height="220" rx="12" fill="white" stroke="#cbd5e1" stroke-width="2"/>
  
  <!-- Browser Header -->
  <rect x="30" y="40" width="340" height="35" rx="12" fill="#f8fafc"/>
  <circle cx="50" cy="57" r="5" fill="#ef4444"/>
  <circle cx="70" cy="57" r="5" fill="#f59e0b"/>
  <circle cx="90" cy="57" r="5" fill="#10b981"/>
  
  <!-- URL Bar -->
  <rect x="120" y="47" width="180" height="20" rx="10" fill="white" stroke="#d1d5db"/>
  <text x="130" y="59" font-family="Arial" font-size="9" fill="#6b7280">www.medical-clinic.com</text>
  
  <!-- Medical Website Header -->
  <rect x="50" y="90" width="300" height="25" rx="4" fill="#1e40af"/>
  <text x="60" y="105" font-family="Arial" font-size="12" fill="white" font-weight="bold">ุนูุงุฏุฉ ุงูุฏูุชูุฑ ุฃุญูุฏ - ุทุจ ุงูุฃุณูุงู</text>
  
  <!-- Navigation -->
  <rect x="50" y="120" width="300" height="20" rx="2" fill="#e0e7ff"/>
  <text x="60" y="132" font-family="Arial" font-size="8" fill="#1e40af">ุงูุฑุฆูุณูุฉ | ุงูุฎุฏูุงุช | ุงูููุงุนูุฏ | ุงุชุตู ุจูุง</text>
  
  <!-- Main Content Area -->
  <rect x="50" y="150" width="180" height="80" rx="4" fill="#f0f9ff"/>
  <rect x="240" y="150" width="110" height="80" rx="4" fill="#ecfdf5"/>
  
  <!-- Services Section -->
  <text x="60" y="165" font-family="Arial" font-size="10" fill="#1e40af" font-weight="bold">ุฎุฏูุงุชูุง ุงูุทุจูุฉ</text>
  <rect x="60" y="170" width="40" height="15" rx="2" fill="#dbeafe"/>
  <rect x="110" y="170" width="40" height="15" rx="2" fill="#dbeafe"/>
  <rect x="60" y="190" width="40" height="15" rx="2" fill="#dbeafe"/>
  <rect x="110" y="190" width="40" height="15" rx="2" fill="#dbeafe"/>
  
  <text x="65" y="180" font-family="Arial" font-size="7" fill="#1e40af">ุชูุธูู</text>
  <text x="115" y="180" font-family="Arial" font-size="7" fill="#1e40af">ุญุดูุงุช</text>
  <text x="65" y="200" font-family="Arial" font-size="7" fill="#1e40af">ุชูููู</text>
  <text x="115" y="200" font-family="Arial" font-size="7" fill="#1e40af">ุฒุฑุงุนุฉ</text>
  
  <!-- Appointment Booking -->
  <text x="250" y="165" font-family="Arial" font-size="10" fill="#166534" font-weight="bold">ุงุญุฌุฒ ููุนุฏู</text>
  <rect x="250" y="170" width="90" height="12" rx="6" fill="#10b981"/>
  <text x="255" y="179" font-family="Arial" font-size="8" fill="white">ุงุญุฌุฒ ุงูุขู</text>
  
  <!-- Contact Info -->
  <text x="250" y="195" font-family="Arial" font-size="8" fill="#166534">๐ 0112345678</text>
  <text x="250" y="205" font-family="Arial" font-size="8" fill="#166534">๐ ุงูุฑูุงุถ - ุญู ุงููุฎูู</text>
  <text x="250" y="215" font-family="Arial" font-size="8" fill="#166534">โฐ 9 ุต - 10 ู</text>
  
  <!-- SEO Results Box -->
  <rect x="50" y="240" width="300" height="15" rx="4" fill="#dcfce7"/>
  <text x="60" y="250" font-family="Arial" font-size="9" fill="#166534" font-weight="bold">ูุชุงุฆุฌ SEO: +300% ููุงุนูุฏ ุฌุฏูุฏุฉ | ุชุฑุชูุจ #1 ูู "ุทุจูุจ ุฃุณูุงู ุงูุฑูุงุถ"</text>
  
  <!-- Medical Icons -->
  <circle cx="380" cy="60" r="12" fill="#ef4444"/>
  <text x="375" y="65" font-family="Arial" font-size="10" fill="white">+</text>
  
  <circle cx="20" cy="120" r="12" fill="#3b82f6"/>
  <text x="15" y="125" font-family="Arial" font-size="10" fill="white">๐ฆท</text>
  
  <!-- Growth Arrow -->
  <path d="M 320 180 L 340 160 L 360 140" stroke="#10b981" stroke-width="3" fill="none" marker-end="url(#arrowhead)"/>
  
  <defs>
    <marker id="arrowhead" markerWidth="10" markerHeight="7" refX="9" refY="3.5" orient="auto">
      <polygon points="0 0, 10 3.5, 0 7" fill="#10b981"/>
    </marker>
  </defs>
</svg>