<?xml version="1.0" encoding="utf-8"?>
<!-- Generator: Adobe Illustrator 26.0.1, SVG Export Plug-In . SVG Version: 6.00 Build 0)  -->
<svg version="1.1" id="Layer_1" xmlns="http://www.w3.org/2000/svg" xmlns:xlink="http://www.w3.org/1999/xlink" x="0px" y="0px"
	 viewBox="0 0 1000 1000" style="enable-background:new 0 0 1000 1000;" xml:space="preserve">
<style type="text/css">
	.st0{fill:#00ADEE;}
	.st1{fill:#E11F26;}
	.st2{fill:#FFFFFF;}
	.st3{fill:#1B75BB;}
</style>
<g>
	<polygon class="st0" points="101.7,401.7 144,628.5 400.8,628.5 358.5,401.7 	"/>
	<polygon class="st0" points="857.9,401.7 614.5,401.7 656.8,628.5 900.2,628.5 	"/>
	<polygon class="st1" points="360.1,372.2 398.8,579.8 640.7,579.8 602,372.2 	"/>
	<path class="st2" d="M502.1,464.8c-11.8,1.2-20.3,4.7-25.4,10.4c-5.3,5.9-7.3,12.6-5.9,19.9l5.7,34.1c1,5.9-1.6,9.1-8.1,9.1h-33.6
		c-20.7,0-30.9,10-30.9,29.9H483c10.4,0,18.9-3.1,24.8-9.3c5.9-6.1,8.3-13.4,6.7-21.9L502.1,464.8"/>
	<path class="st2" d="M370.6,505.4c-1.4-8.3-6.1-15.8-14.2-21.9c-8.3-5.9-17.9-8.9-28.4-8.9h-64.8c-6.7,0-10.2-3.2-11.4-9.3l-2.8-16
		c-1-5.9,1.6-8.9,8.1-8.9h60.2c20.5,0,30.9-10,30.9-29.9H242.6c-10.4,0-18.7,3.1-24.8,9.3c-5.7,5.9-8.1,13.2-6.5,21.9l5.5,31.7
		c1.4,8.3,6.1,15.8,14.4,21.9c8.3,5.9,17.7,8.9,28.4,8.9h64.8c6.5,0,10.2,3.1,11.2,9.3l2.9,16c1,6.1-1.6,9.2-8.1,9.2H181.5
		c-20.7,0-30.9,9.8-30.9,29.5h194.2c10.6,0,18.9-3.2,24.8-9.3c5.9-5.9,8.1-13.2,6.7-21.5L370.6,505.4"/>
	<path class="st2" d="M845.8,441.5c-1.4-7.5-5.7-14.2-12.6-20.1c-7.1-5.9-16.3-9.5-28.2-10.8l22.2,126.6c1.4,7.5,5.7,14.2,12.6,20.1
		c7.1,5.9,16.5,9.5,28.4,10.8L845.8,441.5"/>
	<path class="st2" d="M769.8,421.5c-7.1-5.9-16.3-9.5-28.1-10.8L762.5,529c1,5.9-1.2,8.7-7.3,8.7h-38c0-0.3-0.1-0.5-0.1-0.8l-4.2-19
		c-1.2-7.5-5.7-14.2-12.6-20.1c-7.1-5.9-16.3-9.5-28.2-10.8l8.6,42.2c1,5.9-1.4,8.9-7.3,8.9h-86.6c-6.1,0-9.3-3-10.5-8.9l-15.4-87.6
		c-1.4-7.5-5.7-14.2-12.6-20.1c-7.1-5.9-16.6-9.5-28.4-10.8l22.7,126.2c1.6,8.5,5.9,15.6,13.6,21.9c6.3,5.3,13.4,9.5,21.1,9.5h116
		c5.3,0,9.5-1.9,13.1-4.7c5.7,3.1,11.7,4.7,18,4.7h80.5l-22.4-126.8C781,434.1,776.9,427.4,769.8,421.5"/>
	<path class="st2" d="M622.5,488.4c12.2,0,22.1-9.9,22.1-22.1s-9.9-22.1-22.1-22.1c-12.2,0-22.1,9.9-22.1,22.1
		S610.3,488.4,622.5,488.4"/>
	<path class="st2" d="M301.8,577c-12.2,0-22.1,9.9-22.1,22.1c0,12.2,9.9,22.1,22.1,22.1s22.1-9.9,22.1-22.1S314,577,301.8,577"/>
	<path class="st2" d="M244.1,577c-12.2,0-22.1,9.9-22.1,22.1c0,12.2,9.9,22.1,22.1,22.1s22.1-9.9,22.1-22.1
		C266.3,586.9,256.4,577,244.1,577"/>
	<path class="st2" d="M682.4,595.3c0.2,0.6-0.2,1.2-0.9,1.2s-1.3-0.5-1.5-1.2c-0.2-0.6,0.2-1.2,0.9-1.2
		C681.5,594.1,682.2,594.6,682.4,595.3 M689.7,607.3c-1,0-2-0.3-2.8-1c-0.6,0.4-1.4,0.6-2.4,0.6c-2.1,0-3.8-1.5-4.4-3.9
		c-0.3-1.3-0.1-2.3,0.5-3.1s1.7-1.2,3-1.2h0.6l-0.3-0.9c0.8-0.2,1.5-0.4,2.2-0.5l1.6,6.6c0.3,1.1,0.9,1.6,1.8,1.6h1.2l0.5,1.8
		L689.7,607.3L689.7,607.3z M685,600c-0.4,0-0.7,0-1.1,0c-0.7,0-1.2,0.3-1.6,0.7c-0.3,0.5-0.4,1.1-0.3,1.8c0.4,1.7,1.3,2.6,2.5,2.6
		c0.6,0,1.1-0.1,1.6-0.2L685,600z M685.5,595.3c0.2,0.6-0.2,1.2-0.9,1.2s-1.4-0.5-1.5-1.2c-0.1-0.6,0.2-1.2,0.9-1.2
		S685.4,594.6,685.5,595.3"/>
	<path class="st2" d="M698.4,607.3h-1.3c-0.8,0-1.5-0.2-2.1-0.6c-0.4,0.4-1,0.6-1.7,0.6h-2.4l-0.4-1.8h1.9c0.9,0,1.3-0.5,1-1.6
		l-1.5-6.1l-1-2.6l2.2-0.5l2.3,9.3c0.3,1.1,0.9,1.6,1.8,1.6h0.9L698.4,607.3"/>
	<path class="st2" d="M705.9,599l0.3,2l0.7,2.7c0.6,2.3-0.6,3.5-3.5,3.5h-5.5l-0.4-1.8h3c-0.6-0.7-0.9-1.4-1.1-2.1
		c-0.4-1.4-0.2-2.6,0.4-3.5c0.7-0.9,1.7-1.3,3.2-1.3C703.9,598.6,704.9,598.7,705.9,599 M704.4,601.2l-0.4-1.1
		c-0.3-0.1-0.7-0.1-1.1-0.1c-1.6,0-2.2,1-1.7,3.1c0.4,1.7,1.2,2.5,2.3,2.5c1.4,0,1.9-0.9,1.4-2.6
		C704.8,602.4,704.7,601.9,704.4,601.2"/>
	<path class="st2" d="M714.9,607.3h-1.5c-1.8,0-3.2-1.1-3.7-2.9l-1.6-6.7l-1-2.5l2.1-0.5l2.3,9.3c0.3,1.1,0.9,1.6,1.8,1.6h1.1
		L714.9,607.3"/>
	<path class="st2" d="M729,604.4c0.4,1.7-0.4,2.8-2.1,2.8c-1,0-2-0.4-2.9-1.1c-0.3,0.8-1,1.1-2.1,1.1c-1,0-2-0.4-3-1.2
		c-0.1,0.2-0.2,0.3-0.3,0.4c-0.4,0.5-1,0.7-1.9,0.7h-2.3l-0.4-1.8h1.8c1,0,1.3-0.5,1-1.5l-0.9-3.8l1.8-0.4l1.2,4.9v0.2
		c0.6,0.5,1.2,0.7,1.9,0.7c0.9,0,1.3-0.5,1-1.6l-1-3.8l1.8-0.4l1.3,5.1c0.6,0.5,1.2,0.7,1.9,0.7c0.9,0,1.3-0.5,1-1.6l-0.5-1.9
		l-1-2.6l2.2-0.5L729,604.4 M720.2,595.8c0.2,0.7-0.2,1.2-0.9,1.2s-1.3-0.5-1.5-1.2c-0.1-0.6,0.3-1.2,0.9-1.2
		C719.4,594.6,720.1,595.1,720.2,595.8 M721,592.8c0.2,0.6-0.2,1.2-0.9,1.2c-0.6,0-1.3-0.5-1.5-1.2s0.2-1.2,0.9-1.2
		C720.2,591.5,720.9,592.1,721,592.8 M723.4,595.8c0.2,0.7-0.2,1.2-0.9,1.2c-0.6,0-1.3-0.5-1.5-1.2c-0.2-0.6,0.3-1.2,0.9-1.2
		C722.5,594.6,723.2,595.1,723.4,595.8"/>
	<polygon class="st2" points="741.6,603.7 734.1,603.7 733.9,602.7 741.4,602.7 	"/>
	<path class="st2" d="M748.9,595.3c0.2,0.6-0.2,1.2-0.9,1.2s-1.3-0.5-1.5-1.2c-0.1-0.6,0.2-1.2,0.9-1.2
		C748.1,594.1,748.8,594.6,748.9,595.3 M756.3,607.3c-1,0-2-0.3-2.8-1c-0.6,0.4-1.4,0.6-2.4,0.6c-2.1,0-3.8-1.5-4.4-3.9
		c-0.3-1.3-0.1-2.3,0.5-3.1c0.7-0.8,1.7-1.2,3-1.2h0.6l-0.3-0.9c0.8-0.2,1.5-0.4,2.2-0.5l1.6,6.6c0.3,1.1,0.9,1.6,1.8,1.6h1.2
		l0.5,1.8L756.3,607.3L756.3,607.3z M751.6,600c-0.4,0-0.7,0-1,0c-0.7,0-1.2,0.3-1.6,0.7c-0.4,0.5-0.5,1.1-0.3,1.8
		c0.4,1.7,1.3,2.6,2.5,2.6c0.6,0,1.1-0.1,1.6-0.2L751.6,600z M752.1,595.3c0.2,0.6-0.2,1.2-0.9,1.2s-1.4-0.5-1.5-1.2
		c-0.2-0.6,0.2-1.2,0.9-1.2C751.2,594.1,751.9,594.6,752.1,595.3"/>
	<path class="st2" d="M765.1,607.3h-1.5c-0.8,0-1.5-0.2-2.1-0.6c-0.4,0.4-1,0.6-1.7,0.6h-2.3l-0.4-1.8h1.8c1,0,1.3-0.5,1.1-1.5
		l-0.5-2l-1-2.5l2.2-0.5l1.3,5.1c0.3,1,0.9,1.5,1.8,1.5h1L765.1,607.3 M760.6,610.5c0.1,0.6-0.2,1.2-0.9,1.2c-0.6,0-1.3-0.5-1.5-1.2
		c-0.2-0.6,0.3-1.2,0.9-1.2S760.4,609.8,760.6,610.5 M763.7,610.5c0.1,0.6-0.2,1.2-0.9,1.2s-1.3-0.5-1.5-1.2
		c-0.2-0.6,0.2-1.2,0.9-1.2S763.5,609.8,763.7,610.5"/>
	<path class="st2" d="M769.8,604.4c0.5,1.7-0.4,2.8-2.2,2.8h-3l-0.4-1.8h2.5c1,0,1.3-0.5,1-1.5l-0.5-2l-1-2.5l2.2-0.5L769.8,604.4
		 M770.2,610.5c0.1,0.6-0.2,1.2-0.9,1.2s-1.3-0.5-1.5-1.2c-0.2-0.6,0.2-1.2,0.9-1.2S770,609.8,770.2,610.5"/>
	<path class="st2" d="M777.5,607.3H776c-1.8,0-3.2-1.1-3.7-2.9l-1.6-6.7l-1-2.5l2.1-0.5l2.3,9.3c0.2,1.1,0.9,1.6,1.8,1.6h1.1
		L777.5,607.3"/>
	<path class="st2" d="M784.5,607.3H783c-0.8,0-1.5-0.2-2.1-0.6c-0.4,0.4-1,0.6-1.7,0.6h-2.3l-0.4-1.8h1.8c1,0,1.3-0.5,1-1.5
		l-0.5-1.9l-1-2.6l2.2-0.5l1.3,5c0.3,1,0.9,1.5,1.8,1.5h1L784.5,607.3 M783.1,610.5c0.1,0.6-0.2,1.2-0.9,1.2s-1.4-0.5-1.5-1.2
		c-0.1-0.6,0.2-1.2,0.9-1.2C782.2,609.3,782.9,609.8,783.1,610.5"/>
	<path class="st2" d="M798.6,604.4c0.4,1.7-0.4,2.8-2.1,2.8c-1,0-2-0.4-3-1.1c-0.3,0.8-1,1.1-2.1,1.1c-1,0-2-0.4-3-1.2
		c-0.1,0.2-0.2,0.3-0.3,0.4c-0.4,0.5-1,0.7-1.9,0.7H784l-0.4-1.8h1.8c0.9,0,1.3-0.5,1-1.5l-0.9-3.8l1.8-0.4l1.2,4.9v0.2
		c0.6,0.5,1.2,0.7,1.9,0.7c0.9,0,1.3-0.5,1-1.6l-1-3.8l1.8-0.4l1.3,5.1c0.6,0.5,1.2,0.7,1.9,0.7c0.9,0,1.3-0.5,1-1.6l-0.5-1.9
		l-1-2.6l2.2-0.5L798.6,604.4 M789.8,595.8c0.2,0.7-0.2,1.2-0.9,1.2s-1.3-0.5-1.5-1.2c-0.2-0.6,0.3-1.2,0.9-1.2
		C789,594.6,789.7,595.1,789.8,595.8 M790.6,592.8c0.1,0.6-0.2,1.2-0.9,1.2s-1.3-0.5-1.5-1.2c-0.1-0.7,0.2-1.2,0.9-1.2
		C789.8,591.5,790.5,592.1,790.6,592.8 M793,595.8c0.2,0.7-0.2,1.2-0.9,1.2c-0.6,0-1.3-0.5-1.5-1.2c-0.2-0.6,0.3-1.2,0.9-1.2
		C792.1,594.6,792.8,595.1,793,595.8"/>
	<polygon class="st2" points="811.2,603.7 803.7,603.7 803.5,602.7 811,602.7 	"/>
	<path class="st2" d="M818.6,595.3c0.2,0.6-0.2,1.2-0.9,1.2s-1.3-0.5-1.5-1.2c-0.1-0.6,0.2-1.2,0.9-1.2
		C817.7,594.1,818.4,594.6,818.6,595.3 M825.9,607.3c-1,0-2-0.3-2.8-1c-0.6,0.4-1.4,0.6-2.4,0.6c-2.1,0-3.8-1.5-4.3-3.9
		c-0.3-1.3-0.1-2.3,0.5-3.1c0.7-0.8,1.7-1.2,3-1.2h0.6l-0.3-0.9c0.8-0.2,1.5-0.4,2.2-0.5l1.6,6.6c0.3,1.1,0.9,1.6,1.8,1.6h1.2
		l0.4,1.8L825.9,607.3L825.9,607.3z M821.2,600c-0.3,0-0.7,0-1,0c-0.7,0-1.2,0.3-1.6,0.7c-0.4,0.5-0.5,1.1-0.3,1.8
		c0.4,1.7,1.3,2.6,2.5,2.6c0.6,0,1.1-0.1,1.6-0.2L821.2,600z M821.7,595.3c0.2,0.6-0.2,1.2-0.9,1.2s-1.4-0.5-1.5-1.2
		c-0.2-0.6,0.2-1.2,0.9-1.2C820.8,594.1,821.5,594.6,821.7,595.3"/>
	<path class="st2" d="M834.7,607.3h-1.5c-0.8,0-1.5-0.2-2.1-0.6c-0.4,0.4-1,0.6-1.7,0.6h-2.3l-0.4-1.8h1.8c1,0,1.3-0.5,1.1-1.5
		l-0.5-2l-1-2.5l2.2-0.5l1.3,5.1c0.3,1,0.9,1.5,1.8,1.5h1L834.7,607.3 M830.2,610.5c0.1,0.6-0.2,1.2-0.9,1.2c-0.6,0-1.3-0.5-1.5-1.2
		c-0.1-0.6,0.3-1.2,0.9-1.2C829.3,609.3,830,609.8,830.2,610.5 M833.3,610.5c0.1,0.6-0.2,1.2-0.9,1.2c-0.6,0-1.3-0.5-1.5-1.2
		c-0.2-0.6,0.2-1.2,0.9-1.2S833.1,609.8,833.3,610.5"/>
	<path class="st2" d="M850.9,607.3h-16.7l-0.4-1.8h1.8c1,0,1.3-0.5,1-1.5l-0.9-3.8l1.8-0.4l1,4c1.3-3.1,3.2-4.6,5.6-4.6
		c1.4,0,2.6,0.3,3.7,1c1.1,0.6,1.7,1.5,2,2.6L850.9,607.3 M847.9,602.9c-0.4-1.5-1.7-2.2-3.8-2.2c-1.2,0-2.2,0.7-3.2,2
		c-0.7,1-1.2,2-1.3,2.8h8.9L847.9,602.9z M844.1,595.8c0.2,0.7-0.2,1.2-0.9,1.2c-0.6,0-1.3-0.5-1.5-1.2s0.3-1.2,0.9-1.2
		S843.9,595.1,844.1,595.8"/>
	<path class="st2" d="M858.2,607.3h-1.5c-1.8,0-3.2-1.1-3.7-2.9l-1.6-6.7l-1-2.5l2.1-0.5l2.3,9.3c0.3,1.1,0.9,1.6,1.8,1.6h1.1
		L858.2,607.3"/>
	<path class="st2" d="M862.9,604.4c0.5,1.7-0.4,2.8-2.2,2.8h-3l-0.4-1.8h2.5c1,0,1.3-0.5,1-1.5l-0.5-2l-1-2.5l2.1-0.5L862.9,604.4
		 M860.7,610.5c0.1,0.6-0.2,1.2-0.9,1.2c-0.6,0-1.3-0.5-1.5-1.2c-0.1-0.6,0.3-1.2,0.9-1.2C859.8,609.3,860.5,609.8,860.7,610.5
		 M863.8,610.5c0.1,0.6-0.2,1.2-0.9,1.2s-1.4-0.5-1.5-1.2c-0.2-0.6,0.3-1.2,0.9-1.2S863.6,609.8,863.8,610.5"/>
	<path class="st2" d="M868.8,606.5c0.7,2.7-0.3,4.4-2.9,5.2l-0.6-0.8c1.7-0.6,2.3-1.8,1.8-3.8l-1.3-4.9l-1-2.6l2.2-0.5L868.8,606.5"
		/>
	<path class="st3" d="M512.4,603.2h-1.8c-0.3,0-0.6,0-0.9-0.1c0.2,2-1.2,3.3-3.8,3.3c-1.5,0-2.7-0.4-3.7-1.3
		c-0.9-0.8-1.5-1.9-1.9-3.3l-0.7-2.6h1.5l0.7,2.6c0.6,2.3,2.1,3.7,4.1,3.7c0.8,0,1.4-0.3,1.8-0.9c0.4-0.7,0.5-1.5,0.2-2.6l-0.7-2.5
		l-0.8-1.9l1.7-0.4l0.9,3.3c0.3,1,0.8,1.4,1.5,1.4h1.4L512.4,603.2 M505.1,599.3c0.1,0.5-0.2,0.9-0.7,0.9s-1-0.4-1.2-0.9
		c-0.1-0.5,0.2-0.9,0.7-0.9C504.5,598.4,505,598.8,505.1,599.3"/>
	<path class="st3" d="M520,603.2h-8.4l-0.3-1.3h2.8c-0.5-0.5-0.9-1.1-1.1-1.8c-0.2-0.9-0.1-1.6,0.3-2.2c0.4-0.6,1.1-0.9,2-0.8
		c0.9,0,1.9,0.3,3,1l-0.4,0.6c-0.7-0.4-1.3-0.5-2-0.5c-1.3,0-1.7,0.7-1.4,2c0.1,0.6,0.4,1,0.9,1.3c0.4,0.3,0.8,0.4,1.3,0.4h0.8
		l2-0.2L520,603.2"/>
	<path class="st3" d="M526.5,602.6c0.5,1.9-0.2,3.2-2.3,3.8l-0.5-0.6c1.3-0.4,1.8-1.3,1.4-2.8l-1-3.6l-0.8-1.9l1.7-0.4L526.5,602.6"
		/>
	<path class="st3" d="M535.1,603.2h-6.9v-1.3h3.9v-0.3l-0.4-1.5c-0.2-0.7-0.5-1.3-0.9-1.7s-0.8-0.6-1.2-0.6c-0.1,0-0.3,0-0.4,0.1
		c0-0.1-0.1-0.4-0.3-0.8c0.1,0,0.2,0,0.5,0c0.9,0,1.8,0.3,2.5,0.9c0.7,0.6,1.2,1.4,1.5,2.3l0.4,1.6l0,0h1L535.1,603.2"/>
	<path class="st3" d="M549.5,603.2h-14.8l-0.3-1.3h1.4c0.7,0,1-0.4,0.8-1.1l-0.7-2.8l1.4-0.3l0.8,3.2c1-2.4,2.6-3.7,4.6-3.7
		c1.1,0,2.1,0.2,2.9,0.7c0.8,0.5,1.4,1.1,1.6,1.9l0.6,2.1h1.4L549.5,603.2 M545.7,600.1c-0.3-1.1-1.3-1.6-3-1.6
		c-0.9,0-1.8,0.5-2.5,1.5c-0.6,0.8-0.9,1.4-1,2.1h7L545.7,600.1z"/>
	<path class="st3" d="M549.2,594.8c0.1,0.5-0.2,0.9-0.7,0.9c-0.6,0-1.1-0.4-1.2-0.9c-0.1-0.5,0.2-0.9,0.7-0.9
		C548.5,593.9,549,594.3,549.2,594.8 M553.1,601.2c0.4,1.3-0.3,2.1-1.7,2.1H549l-0.3-1.3h2c0.8,0,1-0.4,0.8-1.1l-0.4-1.4l-0.8-1.8
		l1.7-0.4L553.1,601.2z M551.6,594.8c0.1,0.5-0.2,0.9-0.7,0.9s-1.1-0.4-1.2-0.9c-0.1-0.5,0.2-0.9,0.7-0.9
		C551,593.9,551.5,594.3,551.6,594.8"/>
	<path class="st3" d="M437.2,620.6H436c-0.3,0-0.6,0-0.8-0.1c0.3,1.7-0.5,2.8-2.4,3.3l-0.5-0.6c1.3-0.4,1.8-1.3,1.4-2.8l-1-3.6
		l-0.8-1.9l1.7-0.4l1,3.6c0.2,0.8,0.7,1.2,1.4,1.2h0.9L437.2,620.6"/>
	<path class="st3" d="M450.4,620.6h-0.8c-0.6,0-1.2-0.1-1.7-0.4c-0.3,0.3-0.8,0.4-1.4,0.4c-0.8,0-1.6-0.3-2.3-0.8
		c-0.3,0.6-0.8,0.8-1.6,0.8c-0.8,0-1.6-0.3-2.3-0.8c0,0.1-0.1,0.2-0.2,0.3c-0.3,0.4-0.8,0.5-1.5,0.5h-1.8l-0.3-1.3h1.4
		c0.7,0,1-0.4,0.8-1.2l-0.7-2.8l1.4-0.3l1,3.6v0.2c0.5,0.3,1,0.5,1.5,0.5c0.7,0,1-0.4,0.8-1.2l-0.8-2.8l1.5-0.3l1,3.7
		c0.5,0.4,1,0.5,1.5,0.5c0.7,0,1-0.4,0.8-1.2l-0.4-1.4l-0.8-1.9l1.7-0.4l1,3.7c0.2,0.8,0.7,1.1,1.4,1.1h0.5L450.4,620.6
		 M441.3,612.1c0.1,0.5-0.2,0.9-0.7,0.9s-1.1-0.4-1.2-0.9s0.2-0.9,0.7-0.9C440.7,611.3,441.2,611.6,441.3,612.1 M442,609.9
		c0.1,0.5-0.2,0.9-0.7,0.9s-1-0.4-1.2-0.9c-0.1-0.5,0.2-0.9,0.7-0.9S441.9,609.4,442,609.9 M443.8,612.1c0.1,0.5-0.2,0.9-0.7,0.9
		s-1-0.4-1.2-0.9c-0.1-0.5,0.2-0.9,0.7-0.9C443.2,611.3,443.7,611.6,443.8,612.1"/>
	<path class="st3" d="M456,620.6h-1.2c-0.6,0-1.2-0.1-1.6-0.4c-0.3,0.3-0.8,0.4-1.4,0.4H450l-0.3-1.3h1.4c0.8,0,1-0.4,0.8-1.2
		l-0.4-1.4l-0.8-1.9l1.7-0.4l1,3.7c0.2,0.8,0.7,1.2,1.4,1.2h0.8L456,620.6 M451.7,612.1c0.1,0.5-0.2,0.9-0.7,0.9s-1-0.4-1.2-0.9
		c-0.1-0.5,0.2-0.9,0.7-0.9C451,611.3,451.6,611.6,451.7,612.1"/>
	<path class="st3" d="M460.2,618.4c0.4,1.3-0.3,2.1-1.7,2.1h-2.9l-0.3-1.3h2.5c0.8,0,1-0.4,0.8-1.2l-1.2-4.6l-0.8-1.9l1.7-0.4
		L460.2,618.4"/>
	<polygon class="st3" points="461.9,611.2 462.3,613.2 464.3,620.6 462.8,620.6 460.8,613.2 460.1,611.4 	"/>
	<path class="st3" d="M471.6,620c0.5,2-0.2,3.3-2.3,3.8l-0.5-0.6c1.2-0.3,1.7-1.2,1.5-2.5c-0.5,0.2-1,0.2-1.6,0.2
		c-0.8,0-1.5-0.3-2.2-0.9c-0.6-0.5-1-1.2-1.3-2c-0.3-1-0.2-1.8,0.2-2.5c0.4-0.7,1.2-1,2.3-1h2.4L471.6,620 M470,619.7l-1.2-4.3H468
		c-1.2,0-1.7,0.9-1.3,2.4c0.4,1.4,1.1,2.2,2,2.2C469.2,619.9,469.6,619.8,470,619.7"/>
	<path class="st3" d="M476.6,611.8c0.1,0.4-0.2,0.9-0.7,0.9c-0.6,0-1.1-0.4-1.2-0.9s0.1-0.9,0.7-0.9
		C475.9,610.9,476.5,611.3,476.6,611.8 M482.4,620.6c-0.8,0-1.5-0.2-2.2-0.7c-0.5,0.3-1.1,0.4-1.9,0.4c-1.7,0-3-1.1-3.4-2.8
		c-0.2-0.9-0.1-1.7,0.4-2.3s1.3-0.9,2.4-0.9h0.5l-0.3-0.6c0.6-0.2,1.2-0.3,1.8-0.4l1.3,4.8c0.2,0.8,0.7,1.2,1.4,1.2h1l0.3,1.3H482.4
		z M478.7,615.2c-0.3,0-0.6,0-0.8,0c-0.5,0-0.9,0.2-1.2,0.5c-0.3,0.4-0.4,0.8-0.2,1.4c0.3,1.3,1,1.9,1.9,1.9c0.5,0,0.9,0,1.3-0.2
		L478.7,615.2z M479.1,611.8c0.1,0.4-0.1,0.9-0.7,0.9c-0.5,0-1.1-0.4-1.2-0.9s0.2-0.9,0.7-0.9C478.4,610.9,479,611.3,479.1,611.8"/>
	<path class="st3" d="M489,616.2l0.2,0.7c0.7,2.6-0.1,3.6-2.5,3.6h-3.3l-0.3-1.3h3.4c1,0,1.5-0.3,1.5-0.9c-0.2,0.1-0.5,0.2-1,0.2
		c-1.7,0-2.8-0.8-3.2-2.3c-0.2-0.8-0.1-1.4,0.5-1.9c0.4-0.3,0.9-0.5,1.5-0.5c0.8,0,1.6,0.2,2.2,0.7C488.4,615,488.8,615.6,489,616.2
		 M486.1,612.2c0.1,0.5-0.2,0.9-0.7,0.9s-1.1-0.4-1.2-0.9s0.2-0.9,0.7-0.9S486,611.6,486.1,612.2 M487.4,616.3
		c-0.2-0.9-0.7-1.4-1.5-1.4c-0.7,0-1,0.5-0.7,1.5c0.2,0.9,0.7,1.3,1.4,1.3c0.5,0,0.9-0.1,1.1-0.2
		C487.7,617.1,487.6,616.7,487.4,616.3"/>
	<path class="st3" d="M495.6,620.6h-1.2c-1.4,0-2.5-0.8-2.9-2.1l-1.3-4.9l-0.8-1.8l1.7-0.4l1.8,6.8c0.2,0.8,0.7,1.2,1.4,1.2h0.8
		L495.6,620.6"/>
	<path class="st3" d="M504.9,620.6h-9.7l-0.3-1.3h6.7c-0.6-0.8-1.3-1.6-2.2-2.4c-1.2-1.1-2.1-1.6-2.7-1.6c-0.5,0-0.6,0.3-0.5,0.8
		c0.1,0.3,0.2,0.6,0.5,1l-1.5,0.2c-0.3-1.9,0.4-3,1.7-3c1.1,0,2.3,0.6,3.7,1.9c1.1,1,2,2.1,2.8,3.2h1.2L504.9,620.6"/>
	<path class="st3" d="M519.2,620.6h-14.8l-0.3-1.3h1.4c0.7,0,1-0.4,0.8-1.2l-0.7-2.8l1.4-0.3l0.8,3.2c1.1-2.4,2.6-3.7,4.6-3.7
		c1.1,0,2.1,0.2,2.9,0.7c0.8,0.5,1.4,1.1,1.6,1.9l0.6,2.1h1.4L519.2,620.6 M515.4,617.4c-0.3-1.1-1.3-1.6-3-1.6
		c-0.9,0-1.8,0.5-2.5,1.5c-0.6,0.8-0.9,1.4-1,2.1h7L515.4,617.4z"/>
	<path class="st3" d="M524.7,620.6h-1c-0.6,0-1.2-0.1-1.7-0.4c-0.3,0.3-0.8,0.4-1.4,0.4h-1.9l-0.3-1.3h1.5c0.7,0,1-0.4,0.8-1.2
		l-1.2-4.5l-0.8-1.9l1.7-0.4l1.8,6.8c0.2,0.8,0.7,1.2,1.4,1.2h0.7L524.7,620.6"/>
	<path class="st3" d="M528.9,618.4c0.4,1.3-0.3,2.1-1.7,2.1h-2.9l-0.3-1.3h2.5c0.8,0,1-0.4,0.8-1.2l-1.2-4.6l-0.8-1.9l1.7-0.4
		L528.9,618.4"/>
	<path class="st3" d="M545.8,620.6h-12.3l-0.2-1.5l1.8,0.2c0-0.1-0.6-2-1.5-5.6l-0.7-1.8l1.9-0.2l0.3,1.9l1.1,4.2
		c0.2-0.8,0.7-1.5,1.4-2.2c0.9-0.8,1.8-1.2,2.8-1.2c1.1,0,2.1,0.2,2.9,0.7c0.8,0.5,1.4,1.1,1.6,1.9L545.8,620.6 M543.9,619.3l-0.5-2
		c-0.3-1.1-1.3-1.6-2.9-1.6c-0.9,0-1.7,0.5-2.6,1.5c-0.7,0.8-1.1,1.5-1.2,2.2h7.2V619.3z M540.6,612.1c0.1,0.5-0.2,0.9-0.7,0.9
		s-1-0.4-1.2-0.9c-0.1-0.5,0.2-0.9,0.7-0.9C539.9,611.3,540.4,611.6,540.6,612.1"/>
	<path class="st3" d="M551.3,620.6h-1.2c-1.4,0-2.5-0.8-2.9-2.1l-1.3-4.9l-0.8-1.8l1.7-0.4l1.8,6.8c0.2,0.8,0.7,1.2,1.4,1.2h0.8
		L551.3,620.6"/>
	<path class="st3" d="M562.7,620.6h-11.9l-0.3-1.3h8.9l-0.6-2.1c-0.3-1.1-1.3-1.7-3.1-1.7h-5.4c1.4-1.7,2.5-3.1,3.1-4.2h2.2
		l-1.8,1.7l-1,1.3h2.9c2.4,0,4.1,1,4.5,2.7l0.6,2.4h1.5L562.7,620.6"/>
	<path class="st3" d="M570.7,620.6h-8.4l-0.3-1.3h2.8c-0.5-0.5-0.9-1.1-1.1-1.8c-0.2-0.9-0.1-1.6,0.3-2.2c0.4-0.6,1.1-0.9,2-0.8
		c0.8,0,1.9,0.4,3,1l-0.4,0.7c-0.7-0.4-1.3-0.6-1.9-0.6c-1.3,0-1.7,0.7-1.4,2c0.2,0.6,0.4,1,0.9,1.3c0.4,0.3,0.8,0.4,1.3,0.4h0.8
		l2-0.2L570.7,620.6"/>
	<path class="st3" d="M575.5,611.8c0.1,0.4-0.1,0.9-0.7,0.9s-1-0.4-1.2-0.9c-0.1-0.5,0.2-0.9,0.7-0.9
		C574.9,610.9,575.4,611.3,575.5,611.8 M581.3,620.6c-0.8,0-1.5-0.2-2.2-0.7c-0.5,0.3-1.1,0.4-1.9,0.4c-1.6,0-3-1.1-3.4-2.8
		c-0.2-0.9-0.1-1.7,0.4-2.3s1.3-0.9,2.4-0.9h0.5l-0.3-0.6c0.6-0.2,1.2-0.3,1.8-0.4l1.3,4.8c0.2,0.8,0.7,1.2,1.4,1.2h1l0.4,1.3H581.3
		z M577.6,615.2c-0.3,0-0.6,0-0.8,0c-0.5,0-0.9,0.2-1.2,0.5c-0.3,0.4-0.4,0.8-0.2,1.4c0.3,1.3,1,1.9,1.9,1.9c0.5,0,0.9,0,1.3-0.2
		L577.6,615.2z M578,611.8c0.1,0.4-0.2,0.9-0.7,0.9s-1.1-0.4-1.2-0.9c-0.1-0.5,0.2-0.9,0.7-0.9C577.3,610.9,577.9,611.3,578,611.8"
		/>
	<path class="st3" d="M595.9,620.6h-0.8c-0.6,0-1.2-0.1-1.7-0.4c-0.3,0.3-0.8,0.4-1.4,0.4c-0.8,0-1.6-0.3-2.3-0.8
		c-0.3,0.5-0.8,0.8-1.6,0.8s-1.6-0.3-2.3-0.8c0,0.1-0.1,0.2-0.2,0.3c-0.3,0.4-0.8,0.5-1.5,0.5h-1.8l-0.3-1.3h1.4
		c0.7,0,1-0.4,0.8-1.1l-0.7-2.8l1.4-0.3l1,3.6v0.2c0.5,0.3,1,0.5,1.5,0.5c0.7,0,1-0.4,0.8-1.1l-0.8-2.8l1.5-0.3l1,3.7
		c0.5,0.4,1,0.5,1.5,0.5c0.7,0,1-0.4,0.8-1.1l-0.4-1.4L591,615l1.7-0.4l1,3.7c0.2,0.8,0.7,1.1,1.4,1.1h0.5L595.9,620.6"/>
	<path class="st3" d="M607,618.5c0.3,1.3-0.3,2.1-1.7,2.1c-0.8,0-1.6-0.3-2.3-0.8c-0.3,0.5-0.8,0.8-1.6,0.8s-1.6-0.3-2.3-0.9
		c0,0.1-0.1,0.2-0.2,0.3c-0.3,0.4-0.8,0.5-1.5,0.5h-1.8l-0.3-1.3h1.4c0.7,0,1-0.4,0.8-1.1l-0.7-2.8l1.4-0.3l1,3.6v0.2
		c0.5,0.3,1,0.5,1.5,0.5c0.7,0,1-0.4,0.8-1.1l-0.8-2.8l1.4-0.3l1,3.7c0.5,0.4,1,0.5,1.5,0.5c0.7,0,1-0.4,0.8-1.1l-0.4-1.4l-0.8-1.9
		l1.7-0.4L607,618.5"/>
	<path class="st3" d="M613.2,613.4h-5.1l-0.2-0.9h0.9c-0.4-1.3,0.1-2,1.4-2c0.6,0,1.1,0.1,1.6,0.4c0,0.2,0,0.4-0.1,0.7
		c-0.3-0.2-0.7-0.3-1-0.3c-0.7,0-0.9,0.4-0.7,1.2h1.2l0.9-0.1L613.2,613.4 M616.9,620.6H615c0.2,1.7-0.6,2.7-2.4,3.2l-0.5-0.6
		c1.2-0.5,1.7-1.4,1.4-2.6H612c-0.8,0-1.6-0.2-2.2-0.7c-0.7-0.5-1.2-1.2-1.4-2.1c-0.3-1.1-0.2-1.9,0.3-2.5s1.3-1,2.4-1h2.3l1.3,5
		h1.8L616.9,620.6z M613.2,619.3l-1.1-4.2h-0.8c-1.2,0-1.7,0.9-1.3,2.4c0.3,1.1,0.9,1.7,1.9,1.7L613.2,619.3L613.2,619.3z"/>
	<path class="st3" d="M622.8,614.5l0.3,1.5l0.5,2c0.5,1.7-0.5,2.5-2.8,2.5h-4.3l-0.3-1.3h2.3c-0.4-0.5-0.7-1-0.9-1.5
		c-0.3-1.1-0.2-1.9,0.3-2.6c0.5-0.7,1.4-1,2.6-1C621.2,614.2,622,614.3,622.8,614.5 M621.6,616.1l-0.4-0.8c-0.2-0.1-0.5-0.1-0.8-0.1
		c-1.3,0-1.8,0.7-1.3,2.3c0.3,1.2,0.9,1.8,1.8,1.8c1.1,0,1.5-0.7,1.2-1.9C621.9,617,621.8,616.6,621.6,616.1"/>
	<path class="st2" d="M403.9,408.7h4.6l10.7,19.6h-4.4l-2-4h-7.2l-0.6,4h-4.3L403.9,408.7z M406.1,420.9h5l-3.9-7.7L406.1,420.9z"/>
	<polygon class="st2" points="425.4,428.3 421.6,428.3 417.8,408.7 421.6,408.7 	"/>
	<polygon class="st2" points="433.1,408.7 437.4,408.7 447.9,422.4 445.3,408.7 449.1,408.7 452.9,428.3 448.8,428.3 438,414.4 
		440.7,428.3 436.9,428.3 	"/>
	<path class="st2" d="M460.4,419.5c0.7-0.1,1.2-0.2,1.4-0.3c0.5-0.2,0.7-0.6,0.6-1.1c-0.1-0.6-0.4-1-0.9-1.2
		c-0.4-0.2-1.1-0.3-1.9-0.3c-0.9,0-1.5,0.2-1.8,0.7c-0.2,0.3-0.3,0.8-0.3,1.3H454c-0.2-1.3,0-2.3,0.5-3.1c0.8-1.3,2.4-1.9,4.8-1.9
		c1.6,0,3.1,0.3,4.4,0.9c1.4,0.6,2.2,1.8,2.5,3.6l1.3,6.7c0.1,0.5,0.2,1,0.4,1.7c0.1,0.5,0.3,0.8,0.4,1s0.4,0.3,0.6,0.4l0.1,0.6
		h-4.1c-0.2-0.3-0.3-0.6-0.4-0.8c-0.1-0.3-0.2-0.5-0.3-0.9c-0.4,0.6-0.9,1.1-1.5,1.4c-0.7,0.5-1.6,0.7-2.6,0.7
		c-1.3,0-2.5-0.4-3.5-1.1c-1-0.8-1.6-1.8-1.9-3.2c-0.3-1.8,0.1-3.1,1.3-3.9c0.7-0.4,1.7-0.7,3.1-0.9L460.4,419.5 M463,421.3
		c-0.2,0.1-0.4,0.3-0.7,0.4c-0.2,0.1-0.5,0.2-1,0.3l-0.8,0.1c-0.8,0.1-1.3,0.3-1.6,0.5c-0.5,0.3-0.7,0.9-0.6,1.6
		c0.1,0.6,0.4,1.1,0.8,1.4s0.9,0.4,1.4,0.4c0.8,0,1.5-0.2,2.1-0.7s0.8-1.4,0.6-2.6L463,421.3z"/>
	<path class="st2" d="M478.5,415.7l-1.4-6.9h3.9l3.8,19.6h-3.7l-0.4-2c-0.4,0.9-0.9,1.5-1.5,1.9s-1.4,0.6-2.5,0.6
		c-1.7,0-3.3-0.7-4.7-2c-1.4-1.4-2.3-3.1-2.8-5.3c-0.5-2.5-0.3-4.4,0.6-5.8s2.3-2.1,4.2-2.1c0.9,0,1.7,0.2,2.5,0.6
		C477.2,414.4,477.9,415,478.5,415.7 M479.7,421.3c-0.3-1.8-1-3-2.1-3.8c-0.6-0.5-1.3-0.7-2.1-0.7c-1.1,0-1.8,0.4-2.2,1.3
		c-0.4,0.8-0.4,1.9-0.2,3.1c0.3,1.4,0.7,2.4,1.4,3.2c0.7,0.8,1.6,1.2,2.6,1.2c1.1,0,1.8-0.4,2.2-1.2
		C479.8,423.6,479.9,422.6,479.7,421.3"/>
	<path class="st2" d="M485.5,413.8h3.9l2.8,14.5h-3.8L485.5,413.8z M489,412.1h-3.9l-0.7-3.5h3.8L489,412.1z"/>
</g>
</svg>
