<?xml version="1.0" encoding="utf-8"?>
<!-- Generator: Adobe Illustrator 26.0.1, SVG Export Plug-In . SVG Version: 6.00 Build 0)  -->
<svg version="1.1" id="Layer_1" xmlns="http://www.w3.org/2000/svg" xmlns:xlink="http://www.w3.org/1999/xlink" x="0px" y="0px"
	 viewBox="0 0 1000 1000" style="enable-background:new 0 0 1000 1000;" xml:space="preserve">
<style type="text/css">
	.st0{fill:#231F20;}
	.st1{fill:#C3161C;}
</style>
<g>
	<g>
		<path class="st0" d="M529.4,616.7h-2l-2.4-7.9l0,0l-2.4,7.9h-2l-3-9.4h1.9l2.2,7.8l0,0l2.4-7.8h2.1l2.4,7.8l0,0l2.3-7.8h1.7
			L529.4,616.7z"/>
		<path class="st0" d="M544.5,616.7h-2l-2.4-7.9l0,0l-2.4,7.9h-2l-3-9.4h1.9l2.2,7.8l0,0l2.4-7.8h2.1l2.4,7.8l0,0l2.3-7.8h1.7
			L544.5,616.7z"/>
		<path class="st0" d="M559.7,616.7h-2l-2.4-7.9l0,0l-2.4,7.9h-2l-3-9.4h1.9l2.2,7.8l0,0l2.4-7.8h2.1l2.4,7.8l0,0l2.3-7.8h1.7
			L559.7,616.7z"/>
		<path class="st0" d="M563.8,614.7h2.1v2.1h-2.1V614.7z"/>
		<path class="st0" d="M569.6,608c0.4-0.3,0.9-0.5,1.4-0.6c0.5-0.2,1.1-0.2,1.7-0.2c1.4,0,2.3,0.3,2.9,1c0.6,0.7,0.9,1.6,0.9,2.9
			v3.9c0,0.5,0,0.9,0,1.2s0,0.5,0.1,0.6H575v-1.2l0,0c-0.1,0.1-0.2,0.3-0.4,0.5s-0.4,0.3-0.6,0.5s-0.5,0.3-0.8,0.4s-0.7,0.1-1.1,0.1
			c-0.5,0-1-0.1-1.4-0.2c-0.4-0.1-0.8-0.3-1.1-0.5s-0.5-0.5-0.7-0.9s-0.3-0.8-0.3-1.3c0-0.3,0-0.6,0.1-0.8s0.2-0.5,0.3-0.7
			s0.3-0.4,0.5-0.5c0.2-0.2,0.4-0.3,0.6-0.4c0.4-0.2,0.9-0.4,1.4-0.5s1-0.2,1.4-0.2h0.9c0.1,0,0.3,0,0.4,0c0.2,0,0.3,0,0.5,0
			c0-0.8-0.2-1.4-0.5-1.8c-0.3-0.4-0.9-0.6-1.8-0.6c-0.5,0-1,0.1-1.5,0.3s-0.9,0.4-1.3,0.7L569.6,608z M574.7,612.2
			c-0.2,0-0.4,0-0.5,0c-0.2,0-0.4,0-0.5,0s-0.3,0-0.4,0s-0.3,0-0.5,0c-0.4,0-0.7,0.1-1.1,0.2c-0.3,0.1-0.6,0.3-0.9,0.5
			c-0.3,0.2-0.4,0.6-0.4,1c0,0.2,0.1,0.5,0.2,0.7c0.1,0.2,0.2,0.3,0.4,0.5c0.2,0.1,0.4,0.2,0.6,0.3c0.2,0.1,0.4,0.1,0.6,0.1
			c0.9,0,1.5-0.2,1.9-0.7s0.7-1.1,0.7-1.8L574.7,612.2L574.7,612.2z"/>
		<path class="st0" d="M579.4,602.9h1.7v13.8h-1.7V602.9z"/>
		<path class="st0" d="M583.4,614.9c0.2,0.1,0.4,0.2,0.6,0.3s0.4,0.2,0.6,0.2c0.2,0.1,0.4,0.1,0.6,0.1c0.2,0,0.3,0,0.5,0
			s0.4,0,0.6-0.1c0.2,0,0.4-0.1,0.6-0.2c0.2-0.1,0.3-0.2,0.4-0.4c0.1-0.2,0.2-0.4,0.2-0.7c0-0.2-0.1-0.4-0.2-0.6s-0.3-0.3-0.5-0.4
			c-0.2-0.1-0.4-0.3-0.7-0.4s-0.5-0.2-0.7-0.4c-0.3-0.1-0.5-0.3-0.7-0.4s-0.5-0.3-0.7-0.5s-0.3-0.4-0.5-0.7s-0.2-0.5-0.2-0.9
			c0-0.5,0.1-0.9,0.3-1.3s0.4-0.7,0.7-0.9s0.6-0.4,1.1-0.5s0.8-0.2,1.3-0.2c0.4,0,0.8,0,1.1,0.1s0.7,0.2,1,0.3l-0.1,1.5
			c-0.1-0.1-0.2-0.1-0.4-0.2c-0.2-0.1-0.3-0.1-0.5-0.2c-0.2,0-0.4-0.1-0.5-0.1c-0.2,0-0.3,0-0.4,0c-0.5,0-0.8,0.1-1.2,0.3
			c-0.3,0.2-0.5,0.5-0.5,0.9c0,0.2,0.1,0.4,0.2,0.6c0.1,0.2,0.3,0.3,0.5,0.5c0.2,0.1,0.4,0.2,0.7,0.4c0.2,0.1,0.5,0.2,0.7,0.4
			c0.3,0.1,0.5,0.3,0.7,0.4c0.2,0.1,0.5,0.3,0.7,0.5s0.3,0.4,0.5,0.7c0.1,0.3,0.2,0.6,0.2,1c0,0.5-0.1,0.9-0.3,1.3
			c-0.2,0.4-0.4,0.7-0.7,0.9s-0.7,0.4-1,0.5c-0.4,0.1-0.8,0.2-1.2,0.2s-0.9,0-1.3-0.1c-0.4-0.1-0.9-0.2-1.3-0.4L583.4,614.9z"/>
		<path class="st0" d="M591.1,602.9h1.7v5.8l0,0c0.3-0.5,0.7-0.9,1.3-1.2s1.1-0.4,1.8-0.4c1.2,0,2.1,0.4,2.7,1.1
			c0.6,0.7,0.8,1.7,0.8,3v5.6h-1.7v-4.9c0-1.1-0.1-1.9-0.4-2.5c-0.3-0.5-0.8-0.8-1.6-0.9c-0.5,0-0.9,0.1-1.3,0.3s-0.7,0.5-0.9,0.8
			s-0.4,0.8-0.5,1.2s-0.2,1-0.2,1.6v4.4h-1.7L591.1,602.9L591.1,602.9z"/>
		<path class="st0" d="M602.7,608c0.4-0.3,0.9-0.5,1.4-0.6c0.5-0.2,1.1-0.2,1.7-0.2c1.4,0,2.3,0.3,2.9,1c0.6,0.7,0.9,1.6,0.9,2.9
			v3.9c0,0.5,0,0.9,0,1.2s0,0.5,0.1,0.6H608v-1.2l0,0c-0.1,0.1-0.2,0.3-0.4,0.5s-0.4,0.3-0.6,0.5s-0.5,0.3-0.8,0.4s-0.7,0.1-1.1,0.1
			c-0.5,0-1-0.1-1.4-0.2c-0.4-0.1-0.8-0.3-1.1-0.5s-0.5-0.5-0.7-0.9s-0.3-0.8-0.3-1.3c0-0.3,0-0.6,0.1-0.8s0.2-0.5,0.3-0.7
			s0.3-0.4,0.5-0.5c0.2-0.2,0.4-0.3,0.6-0.4c0.4-0.2,0.9-0.4,1.4-0.5s1-0.2,1.4-0.2h0.9c0.1,0,0.3,0,0.4,0c0.2,0,0.3,0,0.5,0
			c0-0.8-0.2-1.4-0.5-1.8c-0.3-0.4-0.9-0.6-1.8-0.6c-0.5,0-1,0.1-1.5,0.3s-0.9,0.4-1.3,0.7L602.7,608z M607.8,612.2
			c-0.2,0-0.4,0-0.5,0c-0.2,0-0.4,0-0.5,0s-0.3,0-0.4,0s-0.3,0-0.5,0c-0.4,0-0.7,0.1-1.1,0.2c-0.3,0.1-0.6,0.3-0.9,0.5
			c-0.3,0.2-0.4,0.6-0.4,1c0,0.2,0.1,0.5,0.2,0.7c0.1,0.2,0.2,0.3,0.4,0.5c0.2,0.1,0.4,0.2,0.6,0.3c0.2,0.1,0.4,0.1,0.6,0.1
			c0.9,0,1.5-0.2,1.9-0.7s0.7-1.1,0.7-1.8L607.8,612.2L607.8,612.2z"/>
		<path class="st0" d="M612.3,607.3h1.6v1.5l0,0c0.2-0.5,0.6-0.9,1-1.2s0.9-0.5,1.4-0.5c0.3,0,0.5,0,0.6,0c0.2,0,0.3,0.1,0.5,0.1
			v1.5c-0.2-0.1-0.3-0.1-0.5-0.1s-0.3,0-0.5,0c-0.8,0-1.4,0.3-1.9,1s-0.7,1.6-0.7,2.8v4.3h-1.7v-9.4H612.3z"/>
		<path class="st0" d="M627.6,620.6h-1.7v-5.1l0,0c-0.3,0.5-0.7,0.8-1.3,1.1s-1.2,0.4-1.9,0.4s-1.3-0.1-1.8-0.4
			c-0.5-0.3-0.9-0.7-1.3-1.2c-0.3-0.5-0.6-1-0.7-1.6c-0.2-0.6-0.2-1.2-0.2-1.9c0-0.6,0.1-1.2,0.2-1.8c0.2-0.6,0.4-1.1,0.8-1.5
			c0.3-0.4,0.8-0.8,1.3-1c0.5-0.3,1.1-0.4,1.8-0.4c0.4,0,0.8,0,1.1,0.1s0.6,0.2,0.9,0.4c0.3,0.2,0.5,0.3,0.7,0.5s0.3,0.4,0.5,0.5
			l0,0v-1.3h1.7L627.6,620.6L627.6,620.6z M620.5,612c0,0.2,0,0.5,0,0.8s0.1,0.5,0.2,0.8c0.1,0.3,0.2,0.5,0.3,0.8
			c0.1,0.2,0.3,0.5,0.5,0.6c0.2,0.2,0.4,0.3,0.7,0.4c0.2,0.1,0.5,0.2,0.8,0.2c0.5,0,0.9-0.1,1.3-0.3c0.3-0.2,0.6-0.5,0.9-0.8
			c0.2-0.3,0.4-0.7,0.5-1.1s0.2-0.8,0.2-1.2s-0.1-0.9-0.2-1.3s-0.3-0.8-0.5-1.1s-0.5-0.6-0.9-0.8c-0.3-0.2-0.8-0.3-1.2-0.3
			s-0.9,0.1-1.2,0.3s-0.6,0.5-0.8,0.8s-0.4,0.7-0.5,1.1C620.6,611.1,620.5,611.5,620.5,612z"/>
		<path class="st0" d="M630.9,614.7h2.1v2.1h-2.1V614.7z"/>
		<path class="st0" d="M636.3,607.3h1.7v1.5l0,0c0.3-0.5,0.7-1,1.2-1.3c0.6-0.3,1.2-0.5,1.8-0.5c1.2,0,2.1,0.4,2.7,1.1
			c0.6,0.7,0.8,1.7,0.8,3v5.6h-1.7v-4.9c0-1.1-0.1-1.9-0.4-2.5c-0.3-0.5-0.8-0.8-1.6-0.9c-0.5,0-0.9,0.1-1.3,0.3s-0.7,0.5-0.9,0.8
			s-0.4,0.8-0.5,1.2s-0.2,1-0.2,1.6v4.4h-1.7v-9.4H636.3z"/>
		<path class="st0" d="M654.6,616.3c-0.2,0.1-0.4,0.1-0.5,0.2c-0.2,0.1-0.4,0.1-0.6,0.2c-0.2,0.1-0.5,0.1-0.8,0.2
			c-0.3,0-0.6,0.1-1,0.1c-0.8,0-1.5-0.1-2.2-0.4c-0.6-0.2-1.1-0.6-1.5-1s-0.7-1-0.9-1.6s-0.3-1.3-0.3-2.1c0-0.7,0.1-1.3,0.3-1.9
			c0.2-0.6,0.5-1.1,0.9-1.5s0.9-0.8,1.4-1s1.1-0.4,1.8-0.4c0.8,0,1.4,0.1,2,0.4c0.5,0.3,1,0.6,1.3,1.1s0.6,1,0.7,1.7
			c0.1,0.6,0.2,1.3,0.2,2.1h-6.7c0,0.5,0.1,0.9,0.3,1.3c0.2,0.4,0.4,0.7,0.7,1s0.6,0.5,1,0.6c0.4,0.2,0.8,0.2,1.2,0.2
			c0.3,0,0.6,0,0.9-0.1c0.3-0.1,0.6-0.1,0.8-0.2c0.3-0.1,0.5-0.2,0.7-0.3s0.4-0.2,0.5-0.3v1.7H654.6z M653.5,611.1
			c0-0.4-0.1-0.7-0.2-1c-0.1-0.3-0.3-0.6-0.5-0.8s-0.4-0.4-0.7-0.6c-0.3-0.1-0.6-0.2-1-0.2s-0.8,0.1-1.1,0.2
			c-0.3,0.2-0.6,0.4-0.8,0.6s-0.4,0.5-0.5,0.8s-0.2,0.6-0.2,0.9L653.5,611.1L653.5,611.1z"/>
		<path class="st0" d="M662.5,608.7H660v5.2c0,0.6,0.1,1,0.4,1.3c0.3,0.3,0.6,0.4,1,0.4c0.3,0,0.5,0,0.7-0.1s0.4-0.1,0.5-0.2v1.5
			c-0.2,0.1-0.4,0.1-0.7,0.2c-0.2,0.1-0.5,0.1-0.8,0.1c-0.9,0-1.6-0.2-2.1-0.7c-0.5-0.4-0.8-1.1-0.8-2.1v-5.5h-2.1v-1.4h2.1v-2.2
			l1.7-0.6v2.7h2.5L662.5,608.7L662.5,608.7z"/>
		<path class="st0" d="M665,614.7h2.1v2.1H665V614.7z"/>
		<path class="st0" d="M669.6,614.9c0.2,0.1,0.4,0.2,0.6,0.3s0.4,0.2,0.6,0.2c0.2,0.1,0.4,0.1,0.6,0.1c0.2,0,0.3,0,0.5,0
			s0.4,0,0.6-0.1c0.2,0,0.4-0.1,0.6-0.2c0.2-0.1,0.3-0.2,0.4-0.4c0.1-0.2,0.2-0.4,0.2-0.7c0-0.2-0.1-0.4-0.2-0.6s-0.3-0.3-0.5-0.4
			c-0.2-0.1-0.4-0.3-0.7-0.4s-0.5-0.2-0.7-0.4c-0.3-0.1-0.5-0.3-0.7-0.4s-0.5-0.3-0.7-0.5s-0.3-0.4-0.5-0.7s-0.2-0.5-0.2-0.9
			c0-0.5,0.1-0.9,0.3-1.3s0.4-0.7,0.7-0.9s0.6-0.4,1.1-0.5s0.8-0.2,1.3-0.2c0.4,0,0.8,0,1.1,0.1s0.7,0.2,1,0.3l-0.1,1.5
			c-0.1-0.1-0.2-0.1-0.4-0.2c-0.2-0.1-0.3-0.1-0.5-0.2c-0.2,0-0.4-0.1-0.5-0.1c-0.2,0-0.3,0-0.4,0c-0.5,0-0.8,0.1-1.2,0.3
			c-0.3,0.2-0.5,0.5-0.5,0.9c0,0.2,0.1,0.4,0.2,0.6c0.1,0.2,0.3,0.3,0.5,0.5c0.2,0.1,0.4,0.2,0.7,0.4c0.2,0.1,0.5,0.2,0.7,0.4
			c0.3,0.1,0.5,0.3,0.7,0.4c0.2,0.1,0.5,0.3,0.7,0.5s0.3,0.4,0.5,0.7c0.1,0.3,0.2,0.6,0.2,1c0,0.5-0.1,0.9-0.3,1.3
			c-0.2,0.4-0.4,0.7-0.7,0.9s-0.7,0.4-1,0.5c-0.4,0.1-0.8,0.2-1.2,0.2s-0.9,0-1.3-0.1c-0.4-0.1-0.9-0.2-1.3-0.4L669.6,614.9z"/>
		<path class="st0" d="M677.8,608c0.4-0.3,0.9-0.5,1.4-0.6c0.5-0.2,1.1-0.2,1.7-0.2c1.4,0,2.3,0.3,2.9,1c0.6,0.7,0.9,1.6,0.9,2.9
			v3.9c0,0.5,0,0.9,0,1.2s0,0.5,0.1,0.6h-1.6v-1.2l0,0c-0.1,0.1-0.2,0.3-0.4,0.5s-0.4,0.3-0.6,0.5s-0.5,0.3-0.8,0.4
			s-0.7,0.1-1.1,0.1c-0.5,0-1-0.1-1.4-0.2c-0.4-0.1-0.8-0.3-1.1-0.5s-0.5-0.5-0.7-0.9s-0.3-0.8-0.3-1.3c0-0.3,0-0.6,0.1-0.8
			s0.2-0.5,0.3-0.7s0.3-0.4,0.5-0.5c0.2-0.2,0.4-0.3,0.6-0.4c0.4-0.2,0.9-0.4,1.4-0.5s1-0.2,1.4-0.2h0.9c0.1,0,0.3,0,0.4,0
			c0.2,0,0.3,0,0.5,0c0-0.8-0.2-1.4-0.5-1.8c-0.3-0.4-0.9-0.6-1.8-0.6c-0.5,0-1,0.1-1.5,0.3s-0.9,0.4-1.3,0.7L677.8,608z
			 M682.9,612.2c-0.2,0-0.4,0-0.5,0c-0.2,0-0.4,0-0.5,0s-0.3,0-0.4,0s-0.3,0-0.5,0c-0.4,0-0.7,0.1-1.1,0.2c-0.3,0.1-0.6,0.3-0.9,0.5
			c-0.3,0.2-0.4,0.6-0.4,1c0,0.2,0.1,0.5,0.2,0.7c0.1,0.2,0.2,0.3,0.4,0.5c0.2,0.1,0.4,0.2,0.6,0.3c0.2,0.1,0.4,0.1,0.6,0.1
			c0.9,0,1.5-0.2,1.9-0.7s0.7-1.1,0.7-1.8L682.9,612.2L682.9,612.2z"/>
	</g>
	<g>
		<path class="st0" d="M804.5,335.9c26.5,43.3,42.2,96.8,42.2,154.6c0,67.8-18.7,128.1-54,174.7h53.5c35.3-46.5,54-106.9,54-174.7
			c0-57.8-15.7-111.3-42.2-154.6H804.5z"/>
		<path class="st0" d="M799.8,590.8c10-29.9,15.4-66.2,15.4-100.3c0-57.8-15.6-111.3-42.2-154.6h-53.5
			c26.5,43.4,42.2,96.8,42.2,154.6c0,16.3-1.2,32.3-3.6,47.8h-33.9c0,0,6-41.4,2.2-67.8H672c0,0,3.5,35.2-2.9,67.7h-33.5
			c0,0,5.3-33.5,2.5-68.2H584c0,0,2.6,32.7-2.5,68.2h-33.2c0,0,5.7-36.8,2.5-67.9h-54.4c0,0,2.9,36.5-3.4,67.9h-43.5
			c0,0,5.7-32.9,2.5-68.2h-54.9c0,0,13.9,107.4-51.9,194.7h54.1c0,0,18.1-14.9,39.6-73.8L799.8,590.8z"/>
		<path class="st0" d="M660.5,393.4c5.6,16.9,9.9,34.6,12.4,53h53.5c-2.6-18.4-6.8-36.1-12.5-53H660.5z"/>
		<path class="st0" d="M572.3,393.4c5.6,16.9,9.8,34.6,12.4,53h53.5c-2.6-18.4-6.8-36.1-12.5-53H572.3z"/>
		<path class="st0" d="M484.2,393.4c5.6,16.9,9.8,34.6,12.5,53h53.5c-2.6-18.4-6.8-36.1-12.5-53H484.2z"/>
		<path class="st0" d="M254.3,421.1c-2.6-18.4-6.8-36.1-12.5-53h-53.5c5.6,16.9,9.9,34.6,12.5,53H254.3z"/>
		<path class="st0" d="M319,421.1c-2.6-18.4-6.8-36.1-12.5-53H253c5.6,16.9,9.8,34.6,12.5,53H319z"/>
		<path class="st0" d="M349.2,527.4c0,0-3.2,13.9-3.9,14.2c-0.7,0.2-5.1,2.4-6.8,3c-2.3,0.8-9.5,3.8-11.8,4.7
			c-2.6,1-13.8,2.3-16.3,2.6c-4.6,0.6-8.2,1.5-12.6,6.3c-0.8,0.9-2.4,1.7-2.5,4.2c-0.1,1.2-2.7,2-3.9,1.6c-0.3-0.1-0.5-0.2-0.5-0.5
			c-0.4-2.1-1.3-1.8-2.7-1.6c-0.9,0.2-2.1,0.4-3.4-0.3c-1.4-0.7-1.9-0.5-2.4-0.4s-1,0.2-2.4-0.3c-1.5-0.5-3.5-0.4-5.5-0.2
			c-2.2,0.2-4.4,0.3-5.7-0.4c-4-2.2-2.7,3.4-2.9,4c-0.5,2-3.3,4.6-3.5,3.5c-0.6-3.3-3.7-6.5-3.7-7.8s-4.1-3.4-4.5-5.1
			c-1-5-1.6-1.3-2.8-7.2c-0.8-4.2-4.6-5.9-4.6-5.9s-3.4-2-4.8-3.7c-0.7-0.9-4-5.3-3.5-5.9c2.2-3-1.8-1.5,0.2-5.2
			c1.7-3.2-1.1-5-2.2-9.4c-1.2-4.7-7.4-3.5-8.1-10.9c-0.8-7.2-3.9-4.5-3.4-5.7l0.1-0.2c0.8-2.2-0.8-2-0.8-2s-5.4-9.5-5.9-11.1
			c-0.9-3.1-4.9-3.6-4.9-3.6l3-8.8c0,0,6.4,1.5,7.5,1.5s3.1-4.2,3.1-4.2s5.6-0.1,5.7-0.5c0.5-2.3,2.8-3,2.8-3l-1.7-2.2l-3.9-5.1
			c0,0,8.8-1.7,11.3-2.6c4.4-1.7,7.7-0.5,11.3,0.8c6.6,2.5,24.3,19.4,25.7,19.3c1.6-0.1,16,1.4,16.7,2c0.6,0.6,0.9,2.3,0.9,2.3
			s5.2,0.2,5.9,1.2c3.1,4.3,0.5,5.2,4.4,6.2c1.5,0.4-2.3,0.5,4.7,4.5c1.9,1.1,1.6,3.2,1.1,5.2l-0.1,0.4c-0.7,2.1,1.9,1.5,2.3,3.2
			c1.9,8.4,4.2,5.1,5.5,8.8c0.6,1.6,2,0.5,2,0.5l6.8,8.2l17,1.2L349.2,527.4z M354,535.4c0-12-1.8-23.7-5.1-34.7h-0.2
			c-7.5-33.9-38.4-59.3-75.6-59.3c-23.8,0-45.1,10.4-59.2,26.9c-7.9,9.2-13.6,20.2-16.3,32.4c-1.1,5.1-1.7,10.4-1.7,15.8
			c0,39.8,31.9,72.4,72.3,74.9c-11.5,7.8-25.4,12.4-40.4,12.4c-38.9,0-70.4-30.6-70.4-68.4c0-24.6,13.4-46.1,33.4-58.2
			c-3.2-18.7-7.8-36.7-13.5-54l-0.8,0.2c-44.2,19.1-75,62.1-75,112.1c0,67.7,56.5,122.6,126.3,122.6C297.4,658,354,603.1,354,535.4"
			/>
		<polyline class="st1" points="455.9,599.9 779.7,599.9 779.7,598.6 455.9,598.6 		"/>
		<polyline class="st1" points="456,623.6 779.6,623.6 779.6,622.3 456,622.3 		"/>
	</g>
</g>
</svg>
